Coordinates
version=1
nRows=7
nColumns=46
inDegrees=yes

Units are S.I. units (second, meters, Newtons, ...)
Angles are in degrees.

endheader
time	pelvis_tilt	pelvis_list	pelvis_rotation	pelvis_tx	pelvis_ty	pelvis_tz	bb_angle	bb_tx	bb_ty	bb_tz	hip_flexion_r	hip_adduction_r	hip_rotation_r	knee_angle_r	knee_angle_r_beta	ankle_angle_r	subtalar_angle_r	mtp_angle_r	crank_angle_r	hip_flexion_l	hip_adduction_l	hip_rotation_l	knee_angle_l	knee_angle_l_beta	ankle_angle_l	subtalar_angle_l	mtp_angle_l	crank_angle_l	lumbar_extension	lumbar_bending	lumbar_rotation	arm_flex_r	arm_add_r	arm_rot_r	elbow_flex_r	pro_sup_r	wrist_flex_r	wrist_dev_r	arm_flex_l	arm_add_l	arm_rot_l	elbow_flex_l	pro_sup_l	wrist_flex_l	wrist_dev_l
      0.00500000	    -11.70203737	     -1.22227668	     -0.72331125	      0.07586073	      1.10400534	     -0.26230178	      0.00000000	      0.50000000	      0.00000000	      0.25000000	     76.34876194	     -1.75367144	      2.37282494	     85.51791813	      1.49256924	      8.92284541	     -9.72075506	      0.00000000	      0.00000000	     45.15695180	     -8.47869190	     -0.51204651	     72.56687827	      1.26653095	     11.38855331	     -4.29370747	      0.00000000	      0.00000000	    -50.67315749	      0.78578831	      4.19651671	     89.21920640	    -14.28272578	     47.21044262	     23.81308276	     31.93729508	      0.00000000	      0.00000000	     88.69185366	     -9.24727950	     45.35907061	     25.15273763	     34.08320066	      0.00000000	      0.00000000
      0.01000000	    -11.71167194	     -1.22409012	     -0.69438555	      0.07579729	      1.10402549	     -0.26243227	      0.00000000	      0.50000000	      0.00000000	      0.25000000	     76.43507108	     -1.82565751	      2.33249925	     85.66323450	      1.49510549	      8.99481442	     -9.67084364	      0.00000000	      0.00000000	     45.08552203	     -8.45824562	     -0.54049847	     72.35750284	      1.26287666	     11.35674075	     -4.30020197	      0.00000000	      0.00000000	    -50.65949061	      0.82259131	      4.12910245	     89.19935076	    -13.82519354	     45.41906808	     23.35383810	     33.14086918	      0.00000000	      0.00000000	     88.65543206	     -8.87629899	     43.75796572	     24.66148283	     34.96394442	      0.00000000	      0.00000000
      0.01500000	    -11.68687387	     -1.26222782	     -0.71176499	      0.07577920	      1.10410457	     -0.26238717	      0.00000000	      0.50000000	      0.00000000	      0.25000000	     76.45935592	     -1.81662241	      2.28090505	     85.78934337	      1.49730650	      9.10626622	     -9.60603904	      0.00000000	      0.00000000	     44.97550721	     -8.53723446	     -0.58893717	     72.18359089	      1.25984133	     11.40157457	     -4.15938290	      0.00000000	      0.00000000	    -50.71472759	      0.82885085	      4.24046674	     89.20832853	    -13.79194613	     45.18986228	     23.34560441	     33.20131050	      0.00000000	      0.00000000	     88.65294244	     -8.70980577	     43.59652288	     24.72455131	     35.03716323	      0.00000000	      0.00000000
      0.02000000	    -11.71727673	     -1.20833091	     -0.82088364	      0.07574150	      1.10409530	     -0.26232170	      0.00000000	      0.50000000	      0.00000000	      0.25000000	     76.55866222	     -1.74522345	      2.37195880	     85.91840374	      1.49955903	      9.19960924	     -9.48324707	      0.00000000	      0.00000000	     44.88202103	     -8.55580052	     -0.71528087	     71.98411638	      1.25635984	     11.42593367	     -4.13437294	      0.00000000	      0.00000000	    -50.69577993	      0.69775647	      4.26319777	     89.20207804	    -13.74105903	     44.63191888	     23.30575397	     33.53612546	      0.00000000	      0.00000000	     88.61127865	     -8.63879303	     42.94188239	     24.89476242	     35.35533243	      0.00000000	      0.00000000
      0.02500000	    -11.77531752	     -1.27562401	     -0.70017786	      0.07559492	      1.10403444	     -0.26258902	      0.00000000	      0.50000000	      0.00000000	      0.25000000	     76.70249950	     -1.90190994	      2.25398491	     86.10525851	      1.50282026	      9.33750119	     -9.38124164	      0.00000000	      0.00000000	     44.93557856	     -8.49577829	     -0.57603943	     71.85411276	      1.25409085	     11.33388594	     -4.24685664	      0.00000000	      0.00000000	    -50.59926389	      0.86829803	      4.20252295	     89.21816799	    -14.22838502	     47.17586190	     23.94364187	     31.56708383	      0.00000000	      0.00000000	     88.66150578	     -9.14378027	     45.26002734	     25.23507983	     33.56967898	      0.00000000	      0.00000000
      0.03000000	    -11.80112720	     -1.32887635	     -0.68783759	      0.07550931	      1.10397295	     -0.26271676	      0.00000000	      0.50000000	      0.00000000	      0.25000000	     76.80215613	     -1.93292436	      2.17790562	     86.25056838	      1.50535640	      9.39288609	     -9.34600874	      0.00000000	      0.00000000	     44.92050254	     -8.52764014	     -0.54628224	     71.71943437	      1.25174027	     11.30569164	     -4.19055432	      0.00000000	      0.00000000	    -50.57057140	      0.93447119	      4.27310469	     89.20894331	    -14.09806247	     46.58141191	     23.80552426	     31.66564786	      0.00000000	      0.00000000	     88.64215000	     -8.91312620	     44.66155293	     25.04682381	     33.65585598	      0.00000000	      0.00000000
      0.03500000	    -11.80858437	     -1.35279525	     -0.68016206	      0.07542594	      1.10397350	     -0.26274137	      0.00000000	      0.50000000	      0.00000000	      0.25000000	     76.87741499	     -1.96087879	      2.13926805	     86.38862401	      1.50776593	      9.46959150	     -9.30469871	      0.00000000	      0.00000000	     44.87570880	     -8.56475074	     -0.58228468	     71.56425903	      1.24903195	     11.31251780	     -4.13964782	      0.00000000	      0.00000000	    -50.56770468	      0.94540850	      4.27188573	     89.21433965	    -14.08213890	     46.50099790	     23.80511938	     31.51749900	      0.00000000	      0.00000000	     88.65203153	     -8.87496229	     44.57640753	     25.05682326	     33.55923189	      0.00000000	      0.00000000
